<svg viewBox="-88.942 -16.702 500 500" xmlns="http://www.w3.org/2000/svg" height="400" width="400"><g transform="matrix(1.08429, 0, 0, 1.08429, -155.427536, -3.598805)" style=""><g transform="matrix(1.546313, 0, 0, 1.546313, -220.596359, -180.285019)" style=""><g transform="matrix(0.519862, 0, 0, 0.519862, 76.267746, 137.318756)" style=""><g transform="matrix(0.727597, 1.065224, -1.065224, 0.727597, -39.25679, -62.985813)" style="transform-origin: 337.396px 256.379px;"><g><g><g transform="matrix(1.491153, 0, 0, 1.491153, -103.60627, -186.156158)"><g><circle style="stroke: rgb(0, 0, 0); paint-order: fill; stroke-linecap: round; stroke-width: 0px; fill: rgb(242, 86, 37);" cx="296.463" cy="177.758" r="27.878" transform="matrix(1.003504, 0, 0, 1, -0.941006, -1.269741)" /></g><rect x="268.585" y="175.66" width="55.984" height="269.277" style="stroke: rgb(194, 103, 103); paint-order: fill markers; stroke-width: 0px; fill: rgb(242, 86, 37);" /></g><g style="" transform="matrix(1.491153, 0, 0, 1.513657, -75.383751, -167.638046)"><g transform="matrix(0.60783, 0, 0, 0.60783, 125.211449, 106.214661)" style=""><g><circle style="stroke: rgb(0, 0, 0); paint-order: fill; stroke-linecap: round; stroke-width: 0px; fill: rgb(22, 181, 200);" cx="296.463" cy="177.758" r="27.878" transform="matrix(1.003504, 0, 0, 1, -0.941006, -1.269741)" /></g><rect x="268.585" y="175.66" width="55.984" height="351.052" style="stroke: rgb(194, 103, 103); paint-order: fill markers; stroke-width: 0px; fill: rgb(22, 181, 200);" /></g></g><g transform="matrix(0.363624, 0, 0, 0.385585, 244.504776, 169.617157)" style=""><g><circle style="stroke: rgb(0, 0, 0); paint-order: fill; stroke-linecap: round; stroke-width: 0px; fill: rgb(237, 27, 36);" cx="296.463" cy="177.758" r="27.878" transform="matrix(1.003504, 0, 0, 1, -0.941006, -1.269741)" /></g><rect x="268.585" y="175.66" width="55.984" height="620.573" style="stroke: rgb(194, 103, 103); paint-order: fill markers; stroke-width: 0px; fill: rgb(237, 27, 36);" /></g><circle style="stroke: rgb(0, 0, 0); paint-order: fill; stroke-linecap: round; stroke-width: 0px; fill: rgb(243, 112, 34);" cx="296.463" cy="177.758" r="27.878" transform="matrix(1.003504, 0, 0, 1, -0.941006, -1.269741)" /><g style="" transform="matrix(1, 0, 0, 1.324953, 0, -57.081371)"><g><g><rect x="268.585" y="175.66" width="55.984" height="227.656" style="stroke: rgb(194, 103, 103); paint-order: fill markers; stroke-width: 0px; fill: rgb(243, 112, 34);" /></g></g></g></g></g></g></g></g><g transform="matrix(0.360798, 0, 0, 0.360798, 38.268757, 241.191422)" style=""><g transform="matrix(0.565687, 0.82462, -0.82462, 0.565687, 296.469055, -139.492737)"><circle style="stroke: rgb(0, 0, 0); paint-order: fill; stroke-linecap: round; stroke-width: 0px; fill: rgb(242, 86, 37);" cx="296.463" cy="177.758" r="27.878" transform="matrix(1.003504, 0, 0, 1, -0.941006, -1.269741)" /></g><rect x="268.585" y="330.013" width="55.984" height="505.892" style="stroke: rgb(194, 103, 103); paint-order: fill markers; stroke-width: 0px; fill: rgb(242, 86, 37);" transform="matrix(0.565687, 0.82462, -0.82462, 0.565687, 423.751617, -226.808212)" /></g></g></svg>