<?xml version="1.0" encoding="utf-8"?>
<!-- Generator: Adobe Illustrator 24.2.3, SVG Export Plug-In . SVG Version: 6.00 Build 0)  -->
<svg version="1.1" id="Layer_1" xmlns="http://www.w3.org/2000/svg" xmlns:xlink="http://www.w3.org/1999/xlink" x="0px" y="0px"
	 viewBox="0 0 151 151" style="enable-background:new 0 0 151 151;" xml:space="preserve">
<style type="text/css">
	.st0{fill:#F05425;}
	.st1{fill:#F05625;}
</style>
<path class="st0" d="M96.9,61.3c0,11.7,0.1,23.4,0,35.1c-0.1,12.6-8.7,23.2-20.9,26.3c-17,4.2-33.7-8.5-34.1-26
	c-0.3-14,8.9-25.6,22.8-28c4.1-0.7,8.4-0.3,12.6-0.3c0.4,0,1.1,0.9,1.2,1.4c0.5,5.8-3.6,10.4-9.5,10.8c-9.3,0.6-15.4,7.5-14.8,17
	c0.4,7.9,7.9,14.1,16.3,13.8c7.9-0.3,14.4-7.1,14.4-15.3c0.1-14.4,0-28.9,0-43.3c0-8.9,0-17.8,0-26.7c0-3.1,1.7-5.3,4.4-6.2
	c2.4-0.8,5.2,0.1,6.6,2.3c0.7,1.2,1.1,2.7,1.1,4.1C97,37.9,97,49.6,96.9,61.3L96.9,61.3z"/>
<path class="st0" d="M56.9,22c2.9,0,5.2,1.5,6.1,4.4c2.6,8.9,5.1,17.8,7.4,26.7c1,3.9-1.1,7-4.8,7.9c-3.2,0.8-6.4-1.2-7.5-4.9
	c-2.4-8.6-4.9-17.2-7.1-25.8C49.8,25.8,52.6,22,56.9,22z"/>
<path class="st0" d="M18.9,49.2c0.2-3.7,1.5-5.6,3.9-6.7c2.7-1.2,5.1-0.5,7.1,1.5c4.3,4.4,8.6,8.8,12.9,13.3
	c1.1,1.1,2.2,2.2,3.2,3.3c2.3,2.6,2.3,6.1,0.1,8.6s-5.7,2.8-8.5,0.7c-0.5-0.3-0.9-0.7-1.3-1.2C31.2,63.5,26.1,58.3,21.1,53
	C20,51.8,19.4,50,18.9,49.2z"/>
<path class="st0" d="M131.4,75.7c-0.4,0.9-0.9,2.6-2,3.7c-4.8,5.1-9.7,10.1-14.6,15c-2.7,2.7-6.3,2.6-8.9,0.1
	c-2.4-2.4-2.6-6.4-0.2-9c4.8-5.1,9.7-10,14.6-15c2-2.1,4.5-2.4,7.1-1.4C130,70.2,131.2,72.3,131.4,75.7z"/>
<path class="st0" d="M35.6,86c0,4-3.1,6.8-7.1,6.1c-5.1-0.9-10.2-2.2-15.2-3.4c-1.2-0.3-2.4-0.5-3.6-1c-3-1.2-4.6-4.5-3.6-7.6
	c1-3.3,4.1-5.1,7.3-4.4c5.6,1.3,11.3,2.5,16.9,3.9C33.8,80.5,35.6,82.8,35.6,86z"/>
</svg>
