<?xml version="1.0" encoding="utf-8"?>
<!-- Generator: Adobe Illustrator 24.2.3, SVG Export Plug-In . SVG Version: 6.00 Build 0)  -->
<svg version="1.1" id="Layer_1" xmlns="http://www.w3.org/2000/svg" xmlns:xlink="http://www.w3.org/1999/xlink" x="0px" y="0px"
	 viewBox="0 0 533 151" style="enable-background:new 0 0 533 151;" xml:space="preserve">
<style type="text/css">
	.st0{fill:#F05425;}
	.st1{fill:#F05625;}
</style>
<path class="st0" d="M96.9,61.3c0,11.7,0.1,23.4,0,35.1c-0.1,12.6-8.7,23.2-20.9,26.3c-17,4.2-33.7-8.5-34.1-26
	c-0.3-14,8.9-25.6,22.8-28c4.1-0.7,8.4-0.3,12.6-0.3c0.4,0,1.1,0.9,1.2,1.4c0.5,5.8-3.6,10.4-9.5,10.8c-9.3,0.6-15.4,7.5-14.8,17
	c0.4,7.9,7.9,14.1,16.3,13.8c7.9-0.3,14.4-7.1,14.4-15.3c0.1-14.4,0-28.9,0-43.3c0-8.9,0-17.8,0-26.7c0-3.1,1.7-5.3,4.4-6.2
	c2.4-0.8,5.2,0.1,6.6,2.3c0.7,1.2,1.1,2.7,1.1,4.1C97,37.9,97,49.6,96.9,61.3L96.9,61.3z"/>
<path class="st0" d="M56.9,22c2.9,0,5.2,1.5,6.1,4.4c2.6,8.9,5.1,17.8,7.4,26.7c1,3.9-1.1,7-4.8,7.9c-3.2,0.8-6.4-1.2-7.5-4.9
	c-2.4-8.6-4.9-17.2-7.1-25.8C49.8,25.8,52.6,22,56.9,22z"/>
<path class="st0" d="M18.9,49.2c0.2-3.7,1.5-5.6,3.9-6.7c2.7-1.2,5.1-0.5,7.1,1.5c4.3,4.4,8.6,8.8,12.9,13.3
	c1.1,1.1,2.2,2.2,3.2,3.3c2.3,2.6,2.3,6.1,0.1,8.6s-5.7,2.8-8.5,0.7c-0.5-0.3-0.9-0.7-1.3-1.2C31.2,63.5,26.1,58.3,21.1,53
	C20,51.8,19.4,50,18.9,49.2z"/>
<path class="st0" d="M131.4,75.7c-0.4,0.9-0.9,2.6-2,3.7c-4.8,5.1-9.7,10.1-14.6,15c-2.7,2.7-6.3,2.6-8.9,0.1
	c-2.4-2.4-2.6-6.4-0.2-9c4.8-5.1,9.7-10,14.6-15c2-2.1,4.5-2.4,7.1-1.4C130,70.2,131.2,72.3,131.4,75.7z"/>
<path class="st0" d="M35.6,86c0,4-3.1,6.8-7.1,6.1c-5.1-0.9-10.2-2.2-15.2-3.4c-1.2-0.3-2.4-0.5-3.6-1c-3-1.2-4.6-4.5-3.6-7.6
	c1-3.3,4.1-5.1,7.3-4.4c5.6,1.3,11.3,2.5,16.9,3.9C33.8,80.5,35.6,82.8,35.6,86z"/>
<g>
	<path class="st1" d="M185.7,60.5h7c0,0,0.4,10.4-7.5,10.4c-1.6,0-4,0.8-5.9,2.3c-4.2,3.5-5.1,9.7-2,14.2c3.4,4.9,10.1,5.9,14.7,2.3
		c2.6-2,4-5,4.1-8.3c0,0,0,0,0,0v-7.8l0-28.3h10.2V80c0,2.5-0.3,5-1,7.3c-0.5,1.6-1.1,3.3-2,4.8c-1.3,2.2-3,4.1-5.1,5.8
		c-9,7-21.9,5.2-28.8-3.9c-6.9-9.2-5.1-22.2,3.9-29.2c0,0,2-1.6,4.9-2.8c2-0.9,4.2-1.3,6.5-1.5L185.7,60.5z"/>
	<path class="st1" d="M352.6,102.8h7c0,0,0.4-10.4-7.5-10.4c-1.6,0-4-0.8-5.9-2.3c-4.2-3.5-5.1-9.7-2-14.2
		c3.4-4.9,10.1-5.9,14.7-2.3c2.6,2,4,5,4.1,8.3c0,0,0,0,0,0v7.8l0,12.7h10.2V83.2c0-2.5-0.3-5-1-7.3c-0.5-1.6-1.1-3.3-2-4.8
		c-1.3-2.2-3-4.1-5.1-5.8c-9-7-21.9-5.2-28.8,3.9v0c-6.9,9.2-5.1,22.2,3.9,29.2c0,0,2,1.6,4.9,2.8c2,0.9,4.2,1.3,6.5,1.5
		L352.6,102.8z"/>
	<path class="st1" d="M404.5,102.8h7c0,0,0.4-10.4-7.5-10.4c-1.6,0-4-0.8-5.9-2.3c-4.2-3.5-5.1-9.7-2-14.2
		c3.4-4.9,10.1-5.9,14.7-2.3c2.6,2,4,5,4.1,8.3c0,0,0,0,0,0v7.8l0,12.7h10.2V83.2c0-2.5-0.3-5-1-7.3c-0.5-1.6-1.1-3.3-2-4.8
		c-1.3-2.2-3-4.1-5.1-5.8c-9-7-21.9-5.2-28.8,3.9v0c-6.9,9.2-5.1,22.2,3.9,29.2c0,0,2,1.6,4.9,2.8c2,0.9,4.2,1.3,6.5,1.5
		L404.5,102.8z"/>
	<path class="st1" d="M243.4,61c-4.3,0-8.6,0.6-11.2,4V45.3H222v57.1h10.2v-20c0-7.8,3.7-11.3,9.6-11.3c5.4,0,8.9,2.9,8.9,10.4v20.9
		h10.2V80.8C260.9,69,255,61,243.4,61"/>
	<path class="st1" d="M515.1,61.7v20.9c0,7.1-3.1,10-7.8,10.4c-4.8-0.4-7.8-3.3-7.8-10.4V61.7h-10.2v21.5c0,11.8,5.9,19.8,17.5,19.8
		c0.2,0,0.3,0,0.5,0c0.2,0,0.3,0,0.5,0c11.6,0,17.5-8,17.5-19.8V61.7H515.1z"/>
	<rect x="274.6" y="61.6" class="st1" width="10.2" height="40.8"/>
	<path class="st1" d="M319.2,61c-3.1,0-6.2,0.7-9,2.1c-0.5,0.2-0.9,0.5-1.4,0.7v0l0,0c-2.3,1.4-4.3,3.2-6,5.4c-0.8,1-1.4,2.1-2,3.2
		c-1.4,2.7-2.2,5.7-2.2,8.8v21.3h10.2V82.1c-0.1-2.2,0.6-4.4,1.9-6.3c1.9-2.8,5.1-4.4,8.4-4.4l4.7,0V61H319.2z"/>
	<path class="st1" d="M279.4,46.5c3,0,5.4,2.4,5.4,5.4c0,3-2.4,5.4-5.4,5.4c-3,0-5.4-2.4-5.4-5.4C274,48.9,276.4,46.5,279.4,46.5"/>
	<path class="st1" d="M477.5,93.3v-10c0-2.5-0.3-5-1-7.3c-0.5-1.6-1.1-3.3-2-4.8c-1.3-2.2-3-4.1-5.1-5.8c-9-7-21.9-5.2-28.8,3.9
		c-6.9,9.2-5.1,22.2,3.9,29.2c0,0,2,1.6,4.9,2.8c2,0.9,4.2,1.3,6.5,1.5l1.1,0h7c0,0,0.4-10.4-7.5-10.4c-1.6,0-4-0.8-5.9-2.3
		c-4.2-3.5-5.1-9.7-2-14.2c3.4-4.9,10.1-5.9,14.7-2.3c2.6,2,4,5,4.1,8.3c0,0,0,0,0,0v1.5h0l0,0v9.4l0,0.6h0v7.8
		c-0.1,5.9-4,8.8-9.7,8.8c-4.5,0.1-8.1-1.2-11.9-3.2l-5.8,6.2c4.3,3.7,10.3,6.3,17.7,6.3c12.5,0,20.4-8.4,19.9-20.7L477.5,93.3
		L477.5,93.3z"/>
</g>
</svg>
